<svg width="56" height="56" viewBox="0 0 56 56" fill="none" xmlns="http://www.w3.org/2000/svg">
<rect opacity="0.25" x="0.70632" y="0.70632" width="53.6803" height="53.6803" rx="26.8401" stroke="#D0FF00" stroke-width="1.41264"/>
<path fill-rule="evenodd" clip-rule="evenodd" d="M22.6023 36.7289H18.3644V24.0151H22.6023V36.7289Z" fill="#D0FF00"/>
<path fill-rule="evenodd" clip-rule="evenodd" d="M20.4707 21.1896H20.4466C19.1819 21.1896 18.3643 20.2474 18.3643 19.0699C18.3643 17.8675 19.2068 16.9517 20.4955 16.9517C21.7842 16.9517 22.5778 17.8675 22.6023 19.0699C22.6023 20.2474 21.7842 21.1896 20.4707 21.1896Z" fill="#D0FF00"/>
<path fill-rule="evenodd" clip-rule="evenodd" d="M38.1411 36.7286H33.9768V30.0829C33.9768 28.4137 33.3741 27.2746 31.8666 27.2746C30.716 27.2746 30.0307 28.0425 29.7297 28.7842C29.6196 29.05 29.5926 29.4203 29.5926 29.7916V36.7289H25.4276C25.4276 36.7289 25.4824 25.4727 25.4276 24.3072H29.5926V26.0666C30.1453 25.2208 31.1353 24.0151 33.3464 24.0151C36.0868 24.0151 38.1413 25.7909 38.1413 29.6063L38.1411 36.7286Z" fill="#D0FF00"/>
</svg>
