<svg width="56" height="56" viewBox="0 0 56 56" fill="none" xmlns="http://www.w3.org/2000/svg">
<rect opacity="0.25" x="0.70632" y="0.70632" width="53.6803" height="53.6803" rx="26.8401" stroke="white" stroke-width="1.41264"/>
<path fill-rule="evenodd" clip-rule="evenodd" d="M27.2812 23.9105L27.321 24.5826L26.6576 24.5003C24.2426 24.1848 22.1328 23.115 20.3414 21.3181L19.4657 20.4265L19.2401 21.0849C18.7624 22.5526 19.0676 24.1025 20.0628 25.145C20.5935 25.7211 20.4741 25.8034 19.5585 25.4605C19.2401 25.3507 18.9614 25.2684 18.9349 25.3096C18.842 25.4056 19.1605 26.6538 19.4126 27.1476C19.7576 27.8334 20.4609 28.5055 21.2305 28.9033L21.8807 29.2188L21.111 29.2325C20.368 29.2325 20.3414 29.2462 20.421 29.5343C20.6864 30.4258 21.7347 31.3723 22.9024 31.7838L23.7251 32.0718L23.0085 32.5107C21.947 33.1417 20.6997 33.4983 19.4524 33.5258C18.8553 33.5395 18.3643 33.5943 18.3643 33.6355C18.3643 33.7727 19.9832 34.5408 20.9253 34.8425C23.7516 35.7341 27.1087 35.35 29.6299 33.8275C31.4212 32.7439 33.2126 30.5904 34.0485 28.5055C34.4997 27.3945 34.9509 25.3645 34.9509 24.3906C34.9509 23.7596 34.9907 23.6773 35.7337 22.9229C36.1716 22.484 36.583 22.0039 36.6626 21.8668C36.7953 21.6061 36.782 21.6061 36.1053 21.8393C34.9774 22.2508 34.8182 22.196 35.3755 21.5787C35.7868 21.1398 36.2778 20.3442 36.2778 20.111C36.2778 20.0699 36.0787 20.1385 35.8532 20.2619C35.6143 20.3991 35.0835 20.6048 34.6855 20.7283L33.9689 20.9615L33.3187 20.5088C32.9605 20.2619 32.4562 19.9876 32.1909 19.9053C31.5141 19.7133 30.4791 19.7407 29.8687 19.9602C28.2101 20.5774 27.1618 22.1685 27.2812 23.9105Z" fill="white"/>
</svg>
