<svg width="50" height="50" viewBox="0 0 50 50" fill="none" xmlns="http://www.w3.org/2000/svg">
<mask id="mask0_4_266" style="mask-type:alpha" maskUnits="userSpaceOnUse" x="0" y="0" width="50" height="50">
<rect width="49.3196" height="49.3196" fill="#D9D9D9"/>
</mask>
<g mask="url(#mask0_4_266)">
<path d="M19.285 17.2301V15.1751H36.1996V17.2301H19.285ZM19.285 22.9209V20.8659H36.1996V22.9209H19.285ZM24.3438 43.1547H12.3299C11.1705 43.1547 10.1958 42.7595 9.40566 41.969C8.61517 41.1789 8.21993 40.2041 8.21993 39.0448V33.354H14.3849V6.16504H41.0997V22.3799C40.7308 22.3902 40.3797 22.4289 40.0465 22.496C39.7132 22.5635 39.3793 22.659 39.0447 22.7827V8.22002H16.4399V33.354H27.4263L25.3713 35.409H10.2749V39.0448C10.2749 39.627 10.4719 40.1151 10.8657 40.5089C11.2596 40.9028 11.7477 41.0997 12.3299 41.0997H24.3438V43.1547ZM29.2439 43.1547V38.6142L40.2027 27.7069C40.4054 27.5038 40.6162 27.3668 40.8351 27.2959C41.0536 27.2247 41.2723 27.1891 41.4911 27.1891C41.7175 27.1891 41.9467 27.2332 42.1785 27.3216C42.4104 27.4096 42.6145 27.542 42.7909 27.7187L44.6918 29.6591C44.8606 29.8619 44.9891 30.0727 45.0771 30.2916C45.1654 30.5101 45.2096 30.7286 45.2096 30.9471C45.2096 31.166 45.1675 31.3867 45.0832 31.6093C44.999 31.8319 44.8685 32.0446 44.6918 32.2474L33.7849 43.1547H29.2439ZM31.0621 41.3371H33.0143L40.1395 34.1996L39.1752 33.2235L38.2386 32.2197L31.0621 39.3849V41.3371ZM39.1752 33.2235L38.2386 32.2197L40.1395 34.1996L39.1752 33.2235Z" fill="black"/>
</g>
</svg>
