<svg width="32" height="32" viewBox="0 0 32 32" fill="none" xmlns="http://www.w3.org/2000/svg">
<path d="M15.5 20C13.016 20 11 17.984 11 15.5C11 13.016 13.016 11 15.5 11C17.984 11 20 13.016 20 15.5C20 17.984 17.984 20 15.5 20ZM15.5 12.8C14.012 12.8 12.8 14.012 12.8 15.5C12.8 16.988 14.012 18.2 15.5 18.2C16.988 18.2 18.2 16.988 18.2 15.5C18.2 14.012 16.988 12.8 15.5 12.8Z" fill="white"/>
<path d="M19.5149 27.995C19.2514 27.995 18.9879 27.9582 18.7244 27.8969C17.9466 27.6884 17.2941 27.21 16.8801 26.5354L16.7296 26.29C15.9893 25.0389 14.973 25.0389 14.2328 26.29L14.0948 26.5231C13.6808 27.21 13.0283 27.7006 12.2505 27.8969C11.46 28.1054 10.6445 27.995 9.95446 27.5902L7.79647 26.3759C7.03113 25.9466 6.47909 25.2475 6.24071 24.4011C6.01487 23.5548 6.12779 22.6839 6.56691 21.9357C6.93076 21.3101 7.03113 20.7459 6.81784 20.3902C6.60455 20.0345 6.06506 19.826 5.32481 19.826C3.49303 19.826 2 18.3663 2 16.5755V14.4167C2 12.6259 3.49303 11.1663 5.32481 11.1663C6.06506 11.1663 6.60455 10.9578 6.81784 10.6021C7.03113 10.2464 6.94331 9.68215 6.56691 9.05659C6.12779 8.30838 6.01487 7.42524 6.24071 6.59117C6.46654 5.74483 7.01859 5.04567 7.79647 4.61637L9.96701 3.40206C11.3848 2.58025 13.2542 3.05861 14.1073 4.46918L14.2579 4.7145C14.9981 5.96561 16.0144 5.96561 16.7546 4.7145L16.8927 4.48145C17.7458 3.05861 19.6152 2.58025 21.0455 3.41432L23.2035 4.62864C23.9689 5.05794 24.5209 5.75709 24.7593 6.60343C24.9851 7.44977 24.8722 8.32065 24.4331 9.06886C24.0692 9.69442 23.9689 10.2586 24.1822 10.6144C24.3954 10.9701 24.9349 11.1786 25.6752 11.1786C27.507 11.1786 29 12.6382 29 14.429V16.5878C29 18.3786 27.507 19.8382 25.6752 19.8382C24.9349 19.8382 24.3954 20.0468 24.1822 20.4025C23.9689 20.7582 24.0567 21.3224 24.4331 21.948C24.8722 22.6962 24.9977 23.5793 24.7593 24.4134C24.5335 25.2597 23.9814 25.9589 23.2035 26.3882L21.033 27.6025C20.5562 27.8601 20.0418 27.995 19.5149 27.995ZM15.4875 23.4566C16.6041 23.4566 17.6454 24.1435 18.3606 25.3579L18.4986 25.5909C18.6492 25.8485 18.9001 26.0325 19.2012 26.1061C19.5023 26.1797 19.8034 26.1429 20.0544 25.9957L22.2249 24.7691C22.5511 24.5851 22.802 24.2785 22.9024 23.9105C23.0028 23.5425 22.9526 23.1623 22.7644 22.8434C22.0493 21.6413 21.9614 20.4025 22.5135 19.458C23.0655 18.5135 24.2072 17.9738 25.6375 17.9738C26.4405 17.9738 27.0804 17.3483 27.0804 16.5633V14.4045C27.0804 13.6317 26.4405 12.9939 25.6375 12.9939C24.2072 12.9939 23.0655 12.4542 22.5135 11.5098C21.9614 10.5653 22.0493 9.32644 22.7644 8.12439C22.9526 7.80548 23.0028 7.42524 22.9024 7.05727C22.802 6.68929 22.5637 6.39491 22.2375 6.19866L20.0669 4.98435C19.5274 4.66543 18.8123 4.84942 18.4861 5.38912L18.348 5.62217C17.6329 6.83648 16.5915 7.52337 15.4749 7.52337C14.3583 7.52337 13.3169 6.83648 12.6018 5.62217L12.4638 5.37685C12.1501 4.86169 11.4475 4.6777 10.908 4.98435L8.73745 6.21093C8.41124 6.39491 8.16032 6.70156 8.05994 7.06953C7.95957 7.43751 8.00976 7.81775 8.19796 8.13666C8.9131 9.33871 9.00093 10.5776 8.44888 11.522C7.89684 12.4665 6.75511 13.0062 5.32481 13.0062C4.52184 13.0062 3.88197 13.6317 3.88197 14.4167V16.5755C3.88197 17.3483 4.52184 17.9861 5.32481 17.9861C6.75511 17.9861 7.89684 18.5258 8.44888 19.4703C9.00093 20.4147 8.9131 21.6536 8.19796 22.8556C8.00976 23.1745 7.95957 23.5548 8.05994 23.9228C8.16032 24.2907 8.3987 24.5851 8.72491 24.7814L10.8954 25.9957C11.1589 26.1551 11.4726 26.1919 11.7612 26.1183C12.0623 26.0447 12.3132 25.8485 12.4763 25.5909L12.6143 25.3579C13.3295 24.1558 14.3708 23.4566 15.4875 23.4566Z" fill="white"/>
</svg>
